<svg width="42" height="39" viewBox="0 0 42 39" fill="none" xmlns="http://www.w3.org/2000/svg">
<path d="M21 21.7748L12.425 29.7373C12.1042 30.0352 11.6958 30.1842 11.2 30.1842C10.7042 30.1842 10.2958 30.0352 9.97499 29.7373C9.65416 29.4394 9.49374 29.0602 9.49374 28.5998C9.49374 28.1394 9.65416 27.7602 9.97499 27.4623L18.55 19.4998L9.97499 11.5373C9.65416 11.2394 9.49374 10.8602 9.49374 10.3998C9.49374 9.93939 9.65416 9.56022 9.97499 9.2623C10.2958 8.96439 10.7042 8.81543 11.2 8.81543C11.6958 8.81543 12.1042 8.96439 12.425 9.2623L21 17.2248L29.575 9.2623C29.8958 8.96439 30.3042 8.81543 30.8 8.81543C31.2958 8.81543 31.7042 8.96439 32.025 9.2623C32.3458 9.56022 32.5062 9.93939 32.5062 10.3998C32.5062 10.8602 32.3458 11.2394 32.025 11.5373L23.45 19.4998L32.025 27.4623C32.3458 27.7602 32.5062 28.1394 32.5062 28.5998C32.5062 29.0602 32.3458 29.4394 32.025 29.7373C31.7042 30.0352 31.2958 30.1842 30.8 30.1842C30.3042 30.1842 29.8958 30.0352 29.575 29.7373L21 21.7748Z" fill="black"/>
</svg>
