<svg width="13" height="11" viewBox="0 0 13 11" fill="none" xmlns="http://www.w3.org/2000/svg">
<path d="M12.6495 4.98894C12.7952 4.89267 12.9034 4.75836 12.9587 4.60486C13.014 4.45135 13.0138 4.28634 12.958 4.13297C12.9022 3.9796 12.7937 3.84555 12.6476 3.74962C12.5016 3.6537 12.3253 3.6007 12.1436 3.59807L8.61388 3.47985C8.59653 3.47878 8.57989 3.4733 8.56598 3.46404C8.55206 3.45479 8.54146 3.44216 8.53545 3.42769L7.31575 0.506853C7.25447 0.358251 7.14316 0.229936 6.9969 0.139278C6.85064 0.0486202 6.6765 0 6.49804 0C6.31958 0 6.14543 0.0486202 5.99918 0.139278C5.85292 0.229936 5.74161 0.358251 5.68033 0.506853L4.46455 3.43812C4.45854 3.45259 4.44794 3.46522 4.43402 3.47447C4.42011 3.48373 4.40347 3.48922 4.38611 3.49028L0.856436 3.6085C0.674699 3.61113 0.498448 3.66413 0.352396 3.76005C0.206343 3.85598 0.0978141 3.99003 0.0420256 4.1434C-0.013763 4.29678 -0.0140133 4.46178 0.0413097 4.61529C0.0966328 4.7688 0.204755 4.9031 0.350516 4.99938L3.11935 6.92921C3.13321 6.93888 3.14357 6.95194 3.14914 6.96677C3.15472 6.9816 3.15527 6.99756 3.15073 7.01267L2.19771 10.0065C2.14833 10.159 2.15311 10.3212 2.21142 10.4712C2.26972 10.6211 2.37871 10.7515 2.52356 10.8446C2.66841 10.9377 2.84209 10.989 3.02097 10.9915C3.19985 10.9939 3.37525 10.9475 3.5233 10.8584L6.44902 9.11984C6.46343 9.11102 6.48053 9.10629 6.49804 9.10629C6.51555 9.10629 6.53265 9.11102 6.54706 9.11984L9.47277 10.8584C9.61882 10.9505 9.79359 11 9.97281 11C10.152 11 10.3268 10.9505 10.4728 10.8584C10.6177 10.7662 10.7268 10.6365 10.7851 10.487C10.8434 10.3376 10.848 10.1758 10.7984 10.0239L9.83751 7.01962C9.83242 7.00454 9.8327 6.98843 9.83831 6.9735C9.84393 6.95856 9.8546 6.94553 9.86888 6.93617L12.6495 4.98894Z" fill="#808080"/>
</svg>
