<svg width="8" height="10" viewBox="0 0 8 10" fill="none" xmlns="http://www.w3.org/2000/svg">
<path d="M4 9.50005C3.36847 8.96136 2.7831 8.3708 2.25 7.73455C1.45 6.77905 0.5 5.35605 0.5 4.00005C0.499653 3.30753 0.704755 2.63047 1.08935 2.05456C1.47394 1.47865 2.02074 1.02978 2.66053 0.764745C3.30033 0.499714 4.00437 0.430441 4.68356 0.565692C5.36274 0.700943 5.98654 1.03464 6.476 1.52455C6.80188 1.84898 7.06017 2.23481 7.23594 2.65973C7.41171 3.08465 7.50146 3.54021 7.5 4.00005C7.5 5.35605 6.55 6.77905 5.75 7.73455C5.2169 8.3708 4.63153 8.96136 4 9.50005ZM4 2.50005C3.60218 2.50005 3.22064 2.65808 2.93934 2.93939C2.65804 3.22069 2.5 3.60222 2.5 4.00005C2.5 4.39787 2.65804 4.7794 2.93934 5.06071C3.22064 5.34201 3.60218 5.50005 4 5.50005C4.39783 5.50005 4.77936 5.34201 5.06066 5.06071C5.34197 4.7794 5.5 4.39787 5.5 4.00005C5.5 3.60222 5.34197 3.22069 5.06066 2.93939C4.77936 2.65808 4.39783 2.50005 4 2.50005Z" fill="#808080"/>
</svg>
