<svg width="95" height="21" viewBox="0 0 95 21" fill="none" xmlns="http://www.w3.org/2000/svg">
<path d="M0.68 0.631999H11.408C12.224 0.631999 13.016 0.751999 13.76 0.967999C14.48 1.208 15.104 1.544 15.632 1.976C16.16 2.456 16.568 3.032 16.88 3.752C17.168 4.472 17.336 5.336 17.336 6.296C17.336 7.592 17.12 8.624 16.688 9.392C16.256 10.208 15.608 10.832 14.768 11.312L18.416 19.76H13.208L10.232 12.752L5.672 13.76V19.76H0.68V0.631999ZM12.368 6.416C12.368 5.984 12.224 5.576 11.936 5.24C11.624 4.928 11.216 4.76 10.736 4.76H5.672V9.392L10.232 8.552C11.048 8.408 11.6 8.144 11.912 7.76C12.2 7.376 12.368 6.944 12.368 6.416ZM35.0024 7.928V12.056H25.5704V15.656H35.6984V19.76H20.5784V0.631999H35.4584V4.76H25.5704V7.928H35.0024ZM38.555 0.631999H43.547L50.723 12.224V0.631999H55.715V19.76H50.723L43.547 7.952V19.76H38.555V0.631999ZM57.8797 10.184C57.8797 8.72 58.1437 7.376 58.6957 6.128C59.2237 4.904 59.9437 3.848 60.9037 2.936C61.8157 2.072 62.9197 1.376 64.2157 0.871999C65.4877 0.391999 66.8557 0.128 68.3437 0.128C70.3117 0.128 72.0397 0.535999 73.4797 1.328C74.9197 2.144 76.2157 3.344 77.3677 4.928L74.0797 7.688C73.4797 6.632 72.7357 5.792 71.8477 5.168C70.9357 4.544 69.8077 4.232 68.4637 4.232C67.6237 4.232 66.8557 4.4 66.1837 4.688C65.4877 5 64.9117 5.408 64.4317 5.936C63.9277 6.488 63.5437 7.112 63.2797 7.832C62.9917 8.576 62.8717 9.368 62.8717 10.184C62.8717 11.024 62.9917 11.792 63.2797 12.512C63.5197 13.232 63.9037 13.856 64.4077 14.384C64.8877 14.936 65.4877 15.368 66.2077 15.656C66.8797 15.968 67.6477 16.112 68.5117 16.112C69.1837 16.112 69.8077 16.04 70.3837 15.872C70.9117 15.728 71.4157 15.488 71.8957 15.176C72.3277 14.888 72.7597 14.504 73.1437 14.072C73.5037 13.64 73.8397 13.16 74.1757 12.608L77.3917 15.464C76.2877 17 75.0397 18.152 73.5997 18.992C72.1357 19.808 70.3837 20.24 68.3437 20.24C66.8557 20.24 65.4877 19.976 64.2157 19.496C62.9197 18.992 61.8157 18.296 60.9037 17.432C59.9437 16.544 59.2237 15.488 58.6957 14.24C58.1437 13.016 57.8797 11.672 57.8797 10.184ZM94.0415 7.928V12.056H84.6095V15.656H94.7375V19.76H79.6175V0.631999H94.4975V4.76H84.6095V7.928H94.0415Z" fill="#2EE49D"/>
</svg>
