<svg width="154" height="30" viewBox="0 0 154 30" fill="none" xmlns="http://www.w3.org/2000/svg">
<path d="M1.68 3.632H12.408C13.224 3.632 14.016 3.752 14.76 3.968C15.48 4.208 16.104 4.544 16.632 4.976C17.16 5.456 17.568 6.032 17.88 6.752C18.168 7.472 18.336 8.336 18.336 9.296C18.336 10.592 18.12 11.624 17.688 12.392C17.256 13.208 16.608 13.832 15.768 14.312L19.416 22.76H14.208L11.232 15.752L6.672 16.76V22.76H1.68V3.632ZM13.368 9.416C13.368 8.984 13.224 8.576 12.936 8.24C12.624 7.928 12.216 7.76 11.736 7.76H6.672V12.392L11.232 11.552C12.048 11.408 12.6 11.144 12.912 10.76C13.2 10.376 13.368 9.944 13.368 9.416ZM36.0024 10.928V15.056H26.5704V18.656H36.6984V22.76H21.5784V3.632H36.4584V7.76H26.5704V10.928H36.0024ZM39.555 3.632H44.547L51.723 15.224V3.632H56.715V22.76H51.723L44.547 10.952V22.76H39.555V3.632ZM58.8797 13.184C58.8797 11.72 59.1437 10.376 59.6957 9.128C60.2237 7.904 60.9437 6.848 61.9037 5.936C62.8157 5.072 63.9197 4.376 65.2157 3.872C66.4877 3.392 67.8557 3.128 69.3437 3.128C71.3117 3.128 73.0397 3.536 74.4797 4.328C75.9197 5.144 77.2157 6.344 78.3677 7.928L75.0797 10.688C74.4797 9.632 73.7357 8.792 72.8477 8.168C71.9357 7.544 70.8077 7.232 69.4637 7.232C68.6237 7.232 67.8557 7.4 67.1837 7.688C66.4877 8 65.9117 8.408 65.4317 8.936C64.9277 9.488 64.5437 10.112 64.2797 10.832C63.9917 11.576 63.8717 12.368 63.8717 13.184C63.8717 14.024 63.9917 14.792 64.2797 15.512C64.5197 16.232 64.9037 16.856 65.4077 17.384C65.8877 17.936 66.4877 18.368 67.2077 18.656C67.8797 18.968 68.6477 19.112 69.5117 19.112C70.1837 19.112 70.8077 19.04 71.3837 18.872C71.9117 18.728 72.4157 18.488 72.8957 18.176C73.3277 17.888 73.7597 17.504 74.1437 17.072C74.5037 16.64 74.8397 16.16 75.1757 15.608L78.3917 18.464C77.2877 20 76.0397 21.152 74.5997 21.992C73.1357 22.808 71.3837 23.24 69.3437 23.24C67.8557 23.24 66.4877 22.976 65.2157 22.496C63.9197 21.992 62.8157 21.296 61.9037 20.432C60.9437 19.544 60.2237 18.488 59.6957 17.24C59.1437 16.016 58.8797 14.672 58.8797 13.184ZM95.0415 10.928V15.056H85.6095V18.656H95.7375V22.76H80.6175V3.632H95.4975V7.76H85.6095V10.928H95.0415Z" fill="#2EE49D"/>
<path d="M110.632 20.76V14.312L104.728 15.928V20.76H102.2V8.168H104.728V14.008L110.632 12.392V8.168H113.16V20.76H110.632ZM115.239 14.44C115.239 13.448 115.399 12.552 115.751 11.72C116.087 10.92 116.567 10.216 117.175 9.64C117.783 9.064 118.503 8.616 119.335 8.296C120.151 7.992 121.047 7.832 122.007 7.832C122.967 7.832 123.879 7.992 124.711 8.296C125.527 8.616 126.247 9.064 126.855 9.64C127.447 10.216 127.911 10.92 128.263 11.72C128.583 12.552 128.759 13.448 128.759 14.44C128.759 15.448 128.583 16.36 128.263 17.16C127.911 17.992 127.447 18.696 126.855 19.272C126.247 19.848 125.527 20.296 124.711 20.616C123.879 20.92 122.967 21.08 122.007 21.08C121.047 21.08 120.151 20.92 119.335 20.616C118.503 20.296 117.783 19.848 117.175 19.272C116.567 18.696 116.087 17.992 115.751 17.16C115.399 16.36 115.239 15.448 115.239 14.44ZM117.767 14.44C117.767 15.16 117.879 15.8 118.103 16.36C118.327 16.936 118.631 17.432 119.015 17.816C119.399 18.232 119.847 18.536 120.375 18.744C120.887 18.968 121.431 19.064 122.007 19.064C122.583 19.064 123.143 18.968 123.655 18.744C124.167 18.536 124.615 18.232 124.999 17.816C125.383 17.432 125.687 16.936 125.911 16.36C126.119 15.8 126.231 15.16 126.231 14.44C126.231 13.736 126.119 13.112 125.911 12.536C125.687 11.992 125.383 11.512 124.999 11.096C124.615 10.712 124.167 10.408 123.655 10.184C123.143 9.976 122.583 9.864 122.007 9.864C121.415 9.864 120.871 9.976 120.359 10.184C119.831 10.408 119.383 10.712 118.999 11.096C118.615 11.512 118.311 11.992 118.103 12.536C117.879 13.112 117.767 13.736 117.767 14.44ZM131.355 17.416C131.643 17.672 131.963 17.88 132.315 18.072C132.651 18.264 133.019 18.44 133.403 18.568C133.786 18.712 134.187 18.808 134.603 18.872C135.003 18.952 135.419 18.984 135.835 18.968C136.475 18.968 137.003 18.84 137.419 18.6C137.819 18.376 138.027 17.992 138.027 17.48C138.027 16.904 137.819 16.472 137.419 16.168C137.003 15.88 136.411 15.656 135.627 15.464C134.827 15.304 134.123 15.096 133.515 14.856C132.891 14.632 132.379 14.344 131.963 14.024C131.547 13.704 131.227 13.336 131.019 12.904C130.795 12.488 130.699 11.992 130.699 11.416C130.699 10.808 130.827 10.28 131.083 9.832C131.339 9.4 131.674 9.032 132.123 8.728C132.555 8.44 133.051 8.216 133.627 8.056C134.187 7.928 134.779 7.848 135.419 7.848C136.267 7.848 137.083 7.992 137.851 8.248C138.619 8.536 139.387 8.904 140.155 9.384L139.211 11.288C138.699 10.92 138.107 10.616 137.467 10.36C136.811 10.12 136.155 9.992 135.515 9.96C135.243 9.96 134.971 9.976 134.715 10.008C134.427 10.056 134.187 10.136 133.979 10.232C133.755 10.344 133.562 10.488 133.435 10.664C133.291 10.856 133.227 11.08 133.227 11.336C133.227 11.576 133.259 11.784 133.339 11.944C133.403 12.136 133.547 12.296 133.739 12.424C133.931 12.584 134.187 12.712 134.507 12.84C134.827 12.968 135.227 13.096 135.739 13.224C136.619 13.464 137.371 13.704 137.995 13.96C138.602 14.232 139.099 14.52 139.483 14.84C139.851 15.176 140.123 15.544 140.299 15.96C140.459 16.376 140.555 16.872 140.555 17.416C140.555 18.024 140.427 18.536 140.171 18.984C139.915 19.432 139.562 19.816 139.131 20.136C138.683 20.44 138.171 20.68 137.579 20.84C136.971 21 136.315 21.08 135.643 21.08C134.667 21.08 133.739 20.904 132.843 20.584C131.931 20.248 131.115 19.832 130.379 19.32L131.355 17.416ZM148.655 10.12V20.76H146.127V10.12H141.919V8.168H152.863V10.12H148.655Z" fill="#B2A4FF"/>
</svg>
