<svg width="319" height="58" viewBox="0 0 319 58" fill="none" xmlns="http://www.w3.org/2000/svg">
<path d="M3.36 6.264H24.816C26.448 6.264 28.032 6.504 29.52 6.936C30.96 7.416 32.208 8.088 33.264 8.952C34.32 9.912 35.136 11.064 35.76 12.504C36.336 13.944 36.672 15.672 36.672 17.592C36.672 20.184 36.24 22.248 35.376 23.784C34.512 25.416 33.216 26.664 31.536 27.624L38.832 44.52H28.416L22.464 30.504L13.344 32.52V44.52H3.36V6.264ZM26.736 17.832C26.736 16.968 26.448 16.152 25.872 15.48C25.248 14.856 24.432 14.52 23.472 14.52H13.344V23.784L22.464 22.104C24.096 21.816 25.2 21.288 25.824 20.52C26.4 19.752 26.736 18.888 26.736 17.832ZM72.0049 20.856V29.112H53.1409V36.312H73.3969V44.52H43.1569V6.264H72.9169V14.52H53.1409V20.856H72.0049ZM79.11 6.264H89.094L103.446 29.448V6.264H113.43V44.52H103.446L89.094 20.904V44.52H79.11V6.264ZM117.759 25.368C117.759 22.44 118.287 19.752 119.391 17.256C120.447 14.808 121.887 12.696 123.807 10.872C125.631 9.144 127.839 7.752 130.431 6.744C132.975 5.784 135.711 5.256 138.687 5.256C142.623 5.256 146.079 6.072 148.959 7.656C151.839 9.288 154.431 11.688 156.735 14.856L150.159 20.376C148.959 18.264 147.471 16.584 145.695 15.336C143.871 14.088 141.615 13.464 138.927 13.464C137.247 13.464 135.711 13.8 134.367 14.376C132.975 15 131.823 15.816 130.863 16.872C129.855 17.976 129.087 19.224 128.559 20.664C127.983 22.152 127.743 23.736 127.743 25.368C127.743 27.048 127.983 28.584 128.559 30.024C129.039 31.464 129.807 32.712 130.815 33.768C131.775 34.872 132.975 35.736 134.415 36.312C135.759 36.936 137.295 37.224 139.023 37.224C140.367 37.224 141.615 37.08 142.767 36.744C143.823 36.456 144.831 35.976 145.791 35.352C146.655 34.776 147.519 34.008 148.287 33.144C149.007 32.28 149.679 31.32 150.351 30.216L156.783 35.928C154.575 39 152.079 41.304 149.199 42.984C146.271 44.616 142.767 45.48 138.687 45.48C135.711 45.48 132.975 44.952 130.431 43.992C127.839 42.984 125.631 41.592 123.807 39.864C121.887 38.088 120.447 35.976 119.391 33.48C118.287 31.032 117.759 28.344 117.759 25.368ZM190.083 20.856V29.112H171.219V36.312H191.475V44.52H161.235V6.264H190.995V14.52H171.219V20.856H190.083Z" fill="#2EE49D"/>
<path d="M215.512 36.64H212.752L207.592 24.688V36.64H203.8V17.752H207.592L214.12 32.872L220.672 17.752H224.464V36.64H220.672V24.688L215.512 36.64ZM226.978 36.64L233.938 17.752H238.09L245.05 36.64H241.282L239.122 30.568L232.234 32.44L230.746 36.64H226.978ZM233.386 29.248L238.186 27.952L236.002 21.856L233.386 29.248ZM248.329 31.624C248.761 32.008 249.241 32.32 249.769 32.608C250.273 32.896 250.825 33.16 251.401 33.352C251.977 33.568 252.577 33.712 253.201 33.808C253.801 33.928 254.425 33.976 255.049 33.952C256.009 33.952 256.801 33.76 257.425 33.4C258.025 33.064 258.337 32.488 258.337 31.72C258.337 30.856 258.025 30.208 257.425 29.752C256.801 29.32 255.913 28.984 254.737 28.696C253.537 28.456 252.481 28.144 251.569 27.784C250.633 27.448 249.865 27.016 249.241 26.536C248.617 26.056 248.137 25.504 247.825 24.856C247.489 24.232 247.345 23.488 247.345 22.624C247.345 21.712 247.537 20.92 247.921 20.248C248.305 19.6 248.809 19.048 249.481 18.592C250.129 18.16 250.873 17.824 251.737 17.584C252.577 17.392 253.465 17.272 254.425 17.272C255.697 17.272 256.921 17.488 258.073 17.872C259.225 18.304 260.377 18.856 261.529 19.576L260.113 22.432C259.345 21.88 258.457 21.424 257.497 21.04C256.513 20.68 255.529 20.488 254.569 20.44C254.161 20.44 253.753 20.464 253.369 20.512C252.937 20.584 252.577 20.704 252.265 20.848C251.929 21.016 251.641 21.232 251.449 21.496C251.233 21.784 251.137 22.12 251.137 22.504C251.137 22.864 251.185 23.176 251.305 23.416C251.401 23.704 251.617 23.944 251.905 24.136C252.193 24.376 252.577 24.568 253.057 24.76C253.537 24.952 254.137 25.144 254.905 25.336C256.225 25.696 257.353 26.056 258.289 26.44C259.201 26.848 259.945 27.28 260.521 27.76C261.073 28.264 261.481 28.816 261.745 29.44C261.985 30.064 262.129 30.808 262.129 31.624C262.129 32.536 261.937 33.304 261.553 33.976C261.169 34.648 260.641 35.224 259.993 35.704C259.321 36.16 258.553 36.52 257.665 36.76C256.753 37 255.769 37.12 254.761 37.12C253.297 37.12 251.905 36.856 250.561 36.376C249.193 35.872 247.969 35.248 246.865 34.48L248.329 31.624ZM274.28 20.68V36.64H270.488V20.68H264.176V17.752H280.592V20.68H274.28ZM296.934 25.528V28.456H287.022V33.736H297.63V36.64H283.23V17.752H297.39V20.68H287.022V25.528H296.934ZM300.62 17.752H310.748C311.564 17.752 312.308 17.872 313.028 18.088C313.724 18.328 314.348 18.664 314.876 19.096C315.404 19.576 315.812 20.152 316.124 20.824C316.412 21.544 316.556 22.36 316.556 23.296C316.556 24.64 316.268 25.696 315.716 26.44C315.14 27.208 314.348 27.784 313.364 28.168L317.564 36.64H313.652L309.908 29.104L304.412 30.4V36.64H300.62V17.752ZM312.788 23.296C312.788 22.456 312.524 21.808 312.044 21.352C311.516 20.92 310.868 20.68 310.076 20.68H304.412V27.232L309.668 26.152C310.676 25.984 311.444 25.648 311.996 25.168C312.524 24.712 312.788 24.088 312.788 23.296Z" fill="#FF5C71"/>
</svg>
