<svg width="12" height="12" viewBox="0 0 12 12" fill="none" xmlns="http://www.w3.org/2000/svg">
<g clip-path="url(#clip0_29_348)">
<path d="M11.3333 5.59334C11.4572 5.50105 11.5491 5.3723 11.5961 5.22515C11.6432 5.07799 11.643 4.91981 11.5955 4.77278C11.5481 4.62575 11.4559 4.49725 11.3317 4.40529C11.2076 4.31333 11.0578 4.26253 10.9033 4.26001L7.90334 4.14667C7.88859 4.14566 7.87445 4.1404 7.86262 4.13152C7.85079 4.12265 7.84178 4.11055 7.83668 4.09667L6.80001 1.29667C6.74792 1.15422 6.65332 1.03121 6.52901 0.944307C6.4047 0.8574 6.25669 0.810791 6.10501 0.810791C5.95333 0.810791 5.80532 0.8574 5.68101 0.944307C5.5567 1.03121 5.46209 1.15422 5.41001 1.29667L4.37667 4.10667C4.37157 4.12055 4.36256 4.13265 4.35073 4.14152C4.3389 4.15039 4.32476 4.15566 4.31001 4.15668L1.31001 4.27001C1.15554 4.27253 1.00574 4.32333 0.881606 4.41529C0.757471 4.50725 0.665228 4.63575 0.617811 4.78278C0.570395 4.92981 0.570182 5.08799 0.617203 5.23515C0.664224 5.3823 0.756121 5.51105 0.880008 5.60334L3.23334 7.45334C3.24512 7.46261 3.25392 7.47513 3.25866 7.48935C3.2634 7.50356 3.26387 7.51886 3.26001 7.53334L2.45001 10.4033C2.40803 10.5495 2.4121 10.705 2.46165 10.8488C2.51121 10.9925 2.60384 11.1175 2.72696 11.2068C2.85007 11.296 2.99769 11.3452 3.14973 11.3475C3.30176 11.3499 3.45084 11.3054 3.57667 11.22L6.06334 9.55334C6.07559 9.54488 6.09012 9.54035 6.10501 9.54035C6.11989 9.54035 6.13443 9.54488 6.14668 9.55334L8.63334 11.22C8.75748 11.3083 8.90602 11.3557 9.05834 11.3557C9.21066 11.3557 9.35921 11.3083 9.48334 11.22C9.60649 11.1316 9.69921 11.0072 9.74876 10.864C9.7983 10.7207 9.80223 10.5656 9.76001 10.42L8.94334 7.54001C8.93901 7.52555 8.93925 7.51011 8.94403 7.49579C8.9488 7.48147 8.95787 7.46898 8.97001 7.46001L11.3333 5.59334Z" fill="black"/>
</g>
<defs>
<clipPath id="clip0_29_348">
<rect width="12" height="12" fill="white"/>
</clipPath>
</defs>
</svg>
