<svg width="8" height="12" viewBox="0 0 8 12" fill="none" xmlns="http://www.w3.org/2000/svg">
<path d="M0.860022 6.75298L6.34202 11.549C6.98802 12.115 8.00002 11.655 8.00002 10.796V1.20398C8.00019 1.01174 7.94493 0.823521 7.84088 0.661871C7.73683 0.500221 7.58839 0.37199 7.41333 0.292534C7.23827 0.213078 7.04402 0.185765 6.85385 0.213867C6.66367 0.241969 6.48562 0.324294 6.34102 0.450983L0.861022 5.24698C0.753613 5.34084 0.667527 5.4566 0.608543 5.58647C0.549559 5.71635 0.519043 5.85734 0.519043 5.99998C0.519043 6.14262 0.549559 6.28362 0.608543 6.41349C0.667527 6.54337 0.753613 6.65912 0.861022 6.75298H0.860022Z" fill="black"/>
</svg>
