<svg width="8" height="12" viewBox="0 0 8 12" fill="none" xmlns="http://www.w3.org/2000/svg">
<path d="M7.14 6.75298L1.658 11.549C1.012 12.115 3.67706e-07 11.655 3.67706e-07 10.796V1.20398C-0.000164459 1.01174 0.0550878 0.823521 0.159141 0.661871C0.263194 0.500221 0.411637 0.37199 0.586693 0.292534C0.761749 0.213078 0.955998 0.185765 1.14618 0.213867C1.33636 0.241969 1.51441 0.324294 1.659 0.450983L7.139 5.24698C7.24641 5.34084 7.3325 5.4566 7.39148 5.58647C7.45046 5.71635 7.48098 5.85734 7.48098 5.99998C7.48098 6.14262 7.45046 6.28362 7.39148 6.41349C7.3325 6.54337 7.24641 6.65912 7.139 6.75298H7.14Z" fill="black"/>
</svg>
