<svg width="50" height="50" viewBox="0 0 50 50" fill="none" xmlns="http://www.w3.org/2000/svg">
<g clip-path="url(#clip0_23_319)">
<path d="M17.1875 29.7219C17.425 32.7031 19.7813 35.025 24.0063 35.3V37.5H25.8812V35.2844C30.2562 34.9781 32.8125 32.6406 32.8125 29.2469C32.8125 26.1625 30.8562 24.5719 27.3594 23.7469L25.8812 23.3969V17.4063C27.7562 17.6188 28.95 18.6438 29.2375 20.0625H32.525C32.2875 17.1906 29.825 14.9437 25.8812 14.7V12.5H24.0063V14.7469C20.2719 15.1125 17.725 17.3594 17.725 20.5375C17.725 23.35 19.6187 25.1375 22.7656 25.8719L24.0063 26.1781V32.5344C22.0844 32.2438 20.8125 31.1906 20.525 29.7219H17.1875ZM23.9906 22.9531C22.1469 22.525 21.1469 21.6531 21.1469 20.3406C21.1469 18.8719 22.225 17.7719 24.0063 17.45V22.95H23.9906V22.9531ZM26.1531 26.6813C28.3938 27.2 29.4281 28.0406 29.4281 29.525C29.4281 31.2188 28.1406 32.3813 25.8812 32.5938V26.6187L26.1531 26.6813Z" fill="black"/>
<path d="M25 46.875C19.1984 46.875 13.6344 44.5703 9.53204 40.468C5.42968 36.3656 3.125 30.8016 3.125 25C3.125 19.1984 5.42968 13.6344 9.53204 9.53204C13.6344 5.42968 19.1984 3.125 25 3.125C30.8016 3.125 36.3656 5.42968 40.468 9.53204C44.5703 13.6344 46.875 19.1984 46.875 25C46.875 30.8016 44.5703 36.3656 40.468 40.468C36.3656 44.5703 30.8016 46.875 25 46.875ZM25 50C31.6304 50 37.9893 47.3661 42.6777 42.6777C47.3661 37.9893 50 31.6304 50 25C50 18.3696 47.3661 12.0107 42.6777 7.32233C37.9893 2.63392 31.6304 0 25 0C18.3696 0 12.0107 2.63392 7.32233 7.32233C2.63392 12.0107 0 18.3696 0 25C0 31.6304 2.63392 37.9893 7.32233 42.6777C12.0107 47.3661 18.3696 50 25 50Z" fill="black"/>
<path d="M25 42.1875C20.4416 42.1875 16.0699 40.3767 12.8466 37.1534C9.62332 33.9301 7.8125 29.5584 7.8125 25C7.8125 20.4416 9.62332 16.0699 12.8466 12.8466C16.0699 9.62332 20.4416 7.8125 25 7.8125C29.5584 7.8125 33.9301 9.62332 37.1534 12.8466C40.3767 16.0699 42.1875 20.4416 42.1875 25C42.1875 29.5584 40.3767 33.9301 37.1534 37.1534C33.9301 40.3767 29.5584 42.1875 25 42.1875ZM25 43.75C27.4623 43.75 29.9005 43.265 32.1753 42.3227C34.4502 41.3805 36.5172 39.9994 38.2583 38.2583C39.9994 36.5172 41.3805 34.4502 42.3227 32.1753C43.265 29.9005 43.75 27.4623 43.75 25C43.75 22.5377 43.265 20.0995 42.3227 17.8247C41.3805 15.5498 39.9994 13.4828 38.2583 11.7417C36.5172 10.0006 34.4502 8.61953 32.1753 7.67726C29.9005 6.73498 27.4623 6.25 25 6.25C20.0272 6.25 15.2581 8.22544 11.7417 11.7417C8.22544 15.2581 6.25 20.0272 6.25 25C6.25 29.9728 8.22544 34.7419 11.7417 38.2583C15.2581 41.7746 20.0272 43.75 25 43.75Z" fill="black"/>
</g>
<defs>
<clipPath id="clip0_23_319">
<rect width="50" height="50" fill="white"/>
</clipPath>
</defs>
</svg>
