<svg width="50" height="50" viewBox="0 0 50 50" fill="none" xmlns="http://www.w3.org/2000/svg">
<path d="M42.9688 8.98438H34.7656V5.85938C34.7656 5.64453 34.5898 5.46875 34.375 5.46875H31.6406C31.4258 5.46875 31.25 5.64453 31.25 5.85938V8.98438H18.75V5.85938C18.75 5.64453 18.5742 5.46875 18.3594 5.46875H15.625C15.4102 5.46875 15.2344 5.64453 15.2344 5.85938V8.98438H7.03125C6.16699 8.98438 5.46875 9.68262 5.46875 10.5469V42.9688C5.46875 43.833 6.16699 44.5312 7.03125 44.5312H42.9688C43.833 44.5312 44.5312 43.833 44.5312 42.9688V10.5469C44.5312 9.68262 43.833 8.98438 42.9688 8.98438ZM41.0156 41.0156H8.98438V22.4609H41.0156V41.0156ZM8.98438 19.1406V12.5H15.2344V14.8438C15.2344 15.0586 15.4102 15.2344 15.625 15.2344H18.3594C18.5742 15.2344 18.75 15.0586 18.75 14.8438V12.5H31.25V14.8438C31.25 15.0586 31.4258 15.2344 31.6406 15.2344H34.375C34.5898 15.2344 34.7656 15.0586 34.7656 14.8438V12.5H41.0156V19.1406H8.98438Z" fill="black"/>
</svg>
