<svg width="50" height="50" viewBox="0 0 50 50" fill="none" xmlns="http://www.w3.org/2000/svg">
<path d="M41.6666 41.6666H8.33329C7.22822 41.6666 6.16842 41.2276 5.38701 40.4462C4.60561 39.6648 4.16663 38.605 4.16663 37.4999V12.3187C4.21336 11.2453 4.67289 10.2315 5.44929 9.48888C6.22568 8.74626 7.25892 8.33224 8.33329 8.33325H41.6666C42.7717 8.33325 43.8315 8.77224 44.6129 9.55364C45.3943 10.335 45.8333 11.3949 45.8333 12.4999V37.4999C45.8333 38.605 45.3943 39.6648 44.6129 40.4462C43.8315 41.2276 42.7717 41.6666 41.6666 41.6666ZM8.33329 16.3916V37.4999H41.6666V16.3916L25 27.4999L8.33329 16.3916ZM9.99996 12.4999L25 22.4999L40 12.4999H9.99996Z" fill="black"/>
</svg>
