<svg width="50" height="50" viewBox="0 0 50 50" fill="none" xmlns="http://www.w3.org/2000/svg">
<path d="M21.875 29.1667H35.4167C36.007 29.1667 36.5014 28.9667 36.9 28.5667C37.3 28.1681 37.5 27.6737 37.5 27.0834C37.5 26.4931 37.3 25.998 36.9 25.598C36.5014 25.1994 36.007 25.0001 35.4167 25.0001H26.0417L21.875 29.1667ZM13.5417 29.1667H16.7709C17.0486 29.1667 17.309 29.1056 17.5521 28.9834C17.7952 28.8626 18.0209 28.7154 18.2292 28.5417L29.8959 16.9792C30.1042 16.7709 30.2084 16.5105 30.2084 16.198C30.2084 15.8855 30.1042 15.6251 29.8959 15.4167L26.25 11.7709C26.0417 11.5626 25.7813 11.4584 25.4688 11.4584C25.1563 11.4584 24.8959 11.5626 24.6875 11.7709L13.125 23.4376C12.9514 23.6459 12.8042 23.8716 12.6834 24.1147C12.5611 24.3577 12.5 24.6181 12.5 24.8959V28.1251C12.5 28.4029 12.6042 28.6459 12.8125 28.8542C13.0209 29.0626 13.2639 29.1667 13.5417 29.1667ZM4.16669 40.7813V8.33341C4.16669 7.18758 4.57502 6.20633 5.39169 5.38966C6.20697 4.57439 7.18752 4.16675 8.33335 4.16675H41.6667C42.8125 4.16675 43.7938 4.57439 44.6104 5.38966C45.4257 6.20633 45.8334 7.18758 45.8334 8.33341V33.3334C45.8334 34.4792 45.4257 35.4605 44.6104 36.2772C43.7938 37.0924 42.8125 37.5001 41.6667 37.5001H12.5L7.70835 42.2917C7.04863 42.9515 6.29308 43.0987 5.44169 42.7334C4.59169 42.3695 4.16669 41.7188 4.16669 40.7813ZM8.33335 35.7813L10.7813 33.3334H41.6667V8.33341H8.33335V35.7813ZM8.33335 8.33341V35.7813V8.33341Z" fill="black"/>
</svg>
