<svg width="19" height="20" viewBox="0 0 19 20" fill="none" xmlns="http://www.w3.org/2000/svg">
<path d="M0.665033 0C0.488655 0 0.319501 0.0737497 0.194783 0.205025C0.0700654 0.3363 2.33582e-07 0.514348 2.33582e-07 0.699999V8.97798C0.000504003 10.7544 0.671224 12.4579 1.86469 13.7139C3.05816 14.97 4.67666 15.6757 6.36435 15.676L16.811 15.675L13.8365 18.805C13.7747 18.87 13.7257 18.9471 13.6923 19.0321C13.6589 19.117 13.6417 19.208 13.6417 19.3C13.6417 19.3919 13.6589 19.4829 13.6923 19.5679C13.7257 19.6528 13.7747 19.73 13.8365 19.795C13.8982 19.86 13.9715 19.9115 14.0522 19.9467C14.1329 19.9819 14.2194 20 14.3067 20C14.3941 20 14.4805 19.9819 14.5612 19.9467C14.6419 19.9115 14.7152 19.86 14.777 19.795L18.8052 15.554C18.867 15.489 18.9159 15.4118 18.9494 15.3269C18.9828 15.2419 19 15.1509 19 15.059C19 14.967 18.9828 14.876 18.9494 14.7911C18.9159 14.7061 18.867 14.629 18.8052 14.564L14.7761 10.323C14.7143 10.258 14.641 10.2064 14.5603 10.1712C14.4796 10.1361 14.3931 10.1179 14.3058 10.1179C14.2184 10.1179 14.132 10.1361 14.0513 10.1712C13.9706 10.2064 13.8973 10.258 13.8355 10.323C13.7737 10.388 13.7248 10.4652 13.6913 10.5501C13.6579 10.635 13.6407 10.7261 13.6407 10.818C13.6407 10.9099 13.6579 11.0009 13.6913 11.0859C13.7248 11.1708 13.7737 11.248 13.8355 11.313L16.6524 14.276H6.3634C5.02856 14.2757 3.74845 13.7174 2.80457 12.7239C1.86069 11.7304 1.33031 10.383 1.33006 8.97798V0.699999C1.33006 0.514348 1.26 0.3363 1.13528 0.205025C1.01056 0.0737497 0.84141 0 0.665033 0Z" fill="black"/>
</svg>
