<svg width="12" height="11" viewBox="0 0 12 11" fill="none" xmlns="http://www.w3.org/2000/svg">
<path d="M3 10.0833C2.725 10.0833 2.48967 9.99357 2.294 9.81421C2.098 9.63454 2 9.41867 2 9.16659V4.58325C2 4.33117 2.098 4.11529 2.294 3.93563C2.48967 3.75627 2.725 3.66659 3 3.66659H3.5V2.74992C3.5 2.11589 3.74383 1.57536 4.2315 1.12834C4.71883 0.681613 5.30833 0.458252 6 0.458252C6.69167 0.458252 7.28133 0.681613 7.769 1.12834C8.25633 1.57536 8.5 2.11589 8.5 2.74992V3.66659H9C9.275 3.66659 9.5105 3.75627 9.7065 3.93563C9.90217 4.11529 10 4.33117 10 4.58325V9.16659C10 9.41867 9.90217 9.63454 9.7065 9.81421C9.5105 9.99357 9.275 10.0833 9 10.0833H3ZM6 7.79159C6.275 7.79159 6.5105 7.7019 6.7065 7.52254C6.90217 7.34288 7 7.127 7 6.87492C7 6.62284 6.90217 6.40696 6.7065 6.22729C6.5105 6.04793 6.275 5.95825 6 5.95825C5.725 5.95825 5.48967 6.04793 5.294 6.22729C5.098 6.40696 5 6.62284 5 6.87492C5 7.127 5.098 7.34288 5.294 7.52254C5.48967 7.7019 5.725 7.79159 6 7.79159ZM4.5 3.66659H7.5V2.74992C7.5 2.36797 7.35417 2.04332 7.0625 1.77596C6.77083 1.5086 6.41667 1.37492 6 1.37492C5.58333 1.37492 5.22917 1.5086 4.9375 1.77596C4.64583 2.04332 4.5 2.36797 4.5 2.74992V3.66659Z" fill="black"/>
</svg>
