<svg width="18" height="13" viewBox="0 0 18 13" fill="none" xmlns="http://www.w3.org/2000/svg">
<path d="M15.6667 12.6668H2.33334C1.89131 12.6668 1.46739 12.5034 1.15483 12.2127C0.842266 11.9219 0.666672 11.5276 0.666672 11.1164V1.74662C0.685366 1.34723 0.869179 0.969996 1.17974 0.693672C1.49029 0.417348 1.90359 0.263294 2.33334 0.263673H15.6667C16.1087 0.263673 16.5326 0.427016 16.8452 0.71777C17.1577 1.00852 17.3333 1.40287 17.3333 1.81406V11.1164C17.3333 11.5276 17.1577 11.9219 16.8452 12.2127C16.5326 12.5034 16.1087 12.6668 15.6667 12.6668ZM2.33334 3.26212V11.1164H15.6667V3.26212L9 7.39545L2.33334 3.26212ZM3.00001 1.81406L9 5.53499L15 1.81406H3.00001Z" fill="black"/>
</svg>
