<svg width="18" height="17" viewBox="0 0 18 17" fill="none" xmlns="http://www.w3.org/2000/svg">
<path d="M9.83333 2.26352C11.3804 2.26352 12.8642 2.83523 13.9581 3.85286C15.0521 4.8705 15.6667 6.25072 15.6667 7.68988C15.6667 7.89547 15.7545 8.09265 15.9107 8.23802C16.067 8.3834 16.279 8.46507 16.5 8.46507C16.721 8.46507 16.933 8.3834 17.0893 8.23802C17.2455 8.09265 17.3333 7.89547 17.3333 7.68988C17.3333 5.83953 16.5432 4.06497 15.1366 2.75658C13.7301 1.44818 11.8225 0.713135 9.83333 0.713135C9.61232 0.713135 9.40036 0.794807 9.24407 0.940184C9.0878 1.08556 9 1.28273 9 1.48833C9 1.69392 9.0878 1.8911 9.24407 2.03647C9.40036 2.18185 9.61232 2.26352 9.83333 2.26352ZM17.125 11.4961C17.0792 11.3716 17 11.2601 16.8951 11.1719C16.7901 11.0838 16.6628 11.0219 16.525 10.9922L11.525 9.93019C11.3893 9.90156 11.248 9.90501 11.1141 9.94022C10.9802 9.97542 10.8579 10.0413 10.7583 10.1317C10.6417 10.2325 10.6333 10.2403 10.0917 11.2015C8.29433 10.4311 6.85416 9.08589 6.03333 7.41081C7.09166 6.91468 7.1 6.91468 7.20833 6.79841C7.30559 6.70581 7.37637 6.59204 7.41422 6.46746C7.45206 6.34289 7.45577 6.21148 7.425 6.08523L6.28333 1.48833C6.25137 1.36019 6.18488 1.24172 6.09012 1.14407C5.99536 1.04643 5.87544 0.972826 5.74166 0.930189C5.54705 0.86553 5.34609 0.818794 5.14166 0.790654C4.93104 0.745224 4.71611 0.719258 4.5 0.713135C3.48333 0.713135 2.50831 1.08883 1.78942 1.75756C1.07053 2.42629 0.666664 3.33329 0.666664 4.27903C0.671074 7.44392 2.02457 10.478 4.43033 12.7159C6.83609 14.9538 10.0977 16.2129 13.5 16.217C14.0034 16.217 14.5019 16.1248 14.9669 15.9456C15.432 15.7664 15.8546 15.5037 16.2106 15.1726C16.5665 14.8415 16.8489 14.4484 17.0415 14.0157C17.2342 13.5831 17.3333 13.1194 17.3333 12.6511C17.3336 12.4538 17.3169 12.2568 17.2833 12.062C17.2483 11.8694 17.1953 11.6801 17.125 11.4961Z" fill="black"/>
</svg>
