<svg width="12" height="12" viewBox="0 0 12 12" fill="none" xmlns="http://www.w3.org/2000/svg">
<g clip-path="url(#clip0_206_2322)">
<path d="M11.3333 5.59334C11.4572 5.50105 11.5491 5.3723 11.5961 5.22515C11.6431 5.07799 11.6429 4.91981 11.5955 4.77278C11.5481 4.62575 11.4558 4.49725 11.3317 4.40529C11.2075 4.31333 11.0577 4.26253 10.9033 4.26001L7.90328 4.14667C7.88853 4.14566 7.87439 4.1404 7.86256 4.13152C7.85073 4.12265 7.84172 4.11055 7.83661 4.09667L6.79995 1.29667C6.74786 1.15422 6.65326 1.03121 6.52895 0.944307C6.40464 0.8574 6.25662 0.810791 6.10495 0.810791C5.95327 0.810791 5.80526 0.8574 5.68095 0.944307C5.55663 1.03121 5.46203 1.15422 5.40995 1.29667L4.37661 4.10667C4.37151 4.12055 4.3625 4.13265 4.35067 4.14152C4.33884 4.15039 4.3247 4.15566 4.30995 4.15668L1.30995 4.27001C1.15548 4.27253 1.00568 4.32333 0.881545 4.41529C0.75741 4.50725 0.665167 4.63575 0.61775 4.78278C0.570334 4.92981 0.570121 5.08799 0.617142 5.23515C0.664163 5.3823 0.75606 5.51105 0.879947 5.60334L3.23328 7.45334C3.24506 7.46261 3.25386 7.47513 3.2586 7.48935C3.26334 7.50356 3.26381 7.51886 3.25995 7.53334L2.44995 10.4033C2.40797 10.5495 2.41204 10.705 2.46159 10.8488C2.51115 10.9925 2.60378 11.1175 2.7269 11.2068C2.85001 11.296 2.99763 11.3452 3.14967 11.3475C3.3017 11.3499 3.45078 11.3054 3.57661 11.22L6.06328 9.55334C6.07553 9.54488 6.09006 9.54035 6.10495 9.54035C6.11983 9.54035 6.13437 9.54488 6.14661 9.55334L8.63328 11.22C8.75741 11.3083 8.90596 11.3557 9.05828 11.3557C9.2106 11.3557 9.35915 11.3083 9.48328 11.22C9.60643 11.1316 9.69915 11.0072 9.7487 10.864C9.79824 10.7207 9.80217 10.5656 9.75995 10.42L8.94328 7.54001C8.93895 7.52555 8.93919 7.51011 8.94396 7.49579C8.94874 7.48147 8.95781 7.46898 8.96995 7.46001L11.3333 5.59334Z" fill="black"/>
</g>
<defs>
<clipPath id="clip0_206_2322">
<rect width="12" height="12" fill="white"/>
</clipPath>
</defs>
</svg>
