<svg width="16" height="16" viewBox="0 0 16 16" fill="none" xmlns="http://www.w3.org/2000/svg">
<path fill-rule="evenodd" clip-rule="evenodd" d="M4.64604 1.64592C4.69248 1.59935 4.74766 1.56241 4.80841 1.5372C4.86915 1.512 4.93427 1.49902 5.00004 1.49902C5.06581 1.49902 5.13093 1.512 5.19167 1.5372C5.25242 1.56241 5.30759 1.59935 5.35404 1.64592L11.354 7.64592C11.4006 7.69236 11.4375 7.74754 11.4628 7.80828C11.488 7.86903 11.5009 7.93415 11.5009 7.99992C11.5009 8.06568 11.488 8.13081 11.4628 8.19155C11.4375 8.2523 11.4006 8.30747 11.354 8.35392L5.35404 14.3539C5.26015 14.4478 5.13281 14.5005 5.00004 14.5005C4.86726 14.5005 4.73993 14.4478 4.64604 14.3539C4.55215 14.26 4.49941 14.1327 4.49941 13.9999C4.49941 13.8671 4.55215 13.7398 4.64604 13.6459L10.293 7.99992L4.64604 2.35392C4.59948 2.30747 4.56253 2.2523 4.53733 2.19155C4.51212 2.13081 4.49915 2.06568 4.49915 1.99992C4.49915 1.93415 4.51212 1.86903 4.53733 1.80828C4.56253 1.74754 4.59948 1.69236 4.64604 1.64592Z" fill="#E4E4E4"/>
</svg>
