<svg width="16" height="16" viewBox="0 0 16 16" fill="none" xmlns="http://www.w3.org/2000/svg">
<path fill-rule="evenodd" clip-rule="evenodd" d="M3.64604 1.64592C3.69248 1.59935 3.74766 1.56241 3.80841 1.5372C3.86915 1.512 3.93427 1.49902 4.00004 1.49902C4.06581 1.49902 4.13093 1.512 4.19167 1.5372C4.25242 1.56241 4.30759 1.59935 4.35404 1.64592L10.354 7.64592C10.4006 7.69236 10.4375 7.74754 10.4628 7.80828C10.488 7.86903 10.5009 7.93415 10.5009 7.99992C10.5009 8.06568 10.488 8.13081 10.4628 8.19155C10.4375 8.2523 10.4006 8.30747 10.354 8.35392L4.35404 14.3539C4.26015 14.4478 4.13282 14.5005 4.00004 14.5005C3.86726 14.5005 3.73993 14.4478 3.64604 14.3539C3.55215 14.26 3.49941 14.1327 3.49941 13.9999C3.49941 13.8671 3.55215 13.7398 3.64604 13.6459L9.29304 7.99992L3.64604 2.35392C3.59948 2.30747 3.56253 2.2523 3.53733 2.19155C3.51212 2.13081 3.49915 2.06568 3.49915 1.99992C3.49915 1.93415 3.51212 1.86903 3.53733 1.80828C3.56253 1.74754 3.59948 1.69236 3.64604 1.64592Z" fill="#E4E4E4"/>
<path fill-rule="evenodd" clip-rule="evenodd" d="M7.64604 1.64592C7.69248 1.59935 7.74766 1.56241 7.80841 1.5372C7.86915 1.512 7.93427 1.49902 8.00004 1.49902C8.06581 1.49902 8.13093 1.512 8.19167 1.5372C8.25242 1.56241 8.30759 1.59935 8.35404 1.64592L14.354 7.64592C14.4006 7.69236 14.4375 7.74754 14.4628 7.80828C14.488 7.86903 14.5009 7.93415 14.5009 7.99992C14.5009 8.06568 14.488 8.13081 14.4628 8.19155C14.4375 8.2523 14.4006 8.30747 14.354 8.35392L8.35404 14.3539C8.26015 14.4478 8.13281 14.5005 8.00004 14.5005C7.86726 14.5005 7.73993 14.4478 7.64604 14.3539C7.55215 14.26 7.49941 14.1327 7.49941 13.9999C7.49941 13.8671 7.55215 13.7398 7.64604 13.6459L13.293 7.99992L7.64604 2.35392C7.59948 2.30747 7.56253 2.2523 7.53733 2.19155C7.51212 2.13081 7.49915 2.06568 7.49915 1.99992C7.49915 1.93415 7.51212 1.86903 7.53733 1.80828C7.56253 1.74754 7.59948 1.69236 7.64604 1.64592Z" fill="#E4E4E4"/>
</svg>
