<svg width="32" height="32" viewBox="0 0 32 32" fill="none" xmlns="http://www.w3.org/2000/svg">
<path d="M16 2.66675C8.64802 2.66675 2.66669 8.64808 2.66669 16.0001C2.66669 23.3521 8.64802 29.3334 16 29.3334C23.352 29.3334 29.3334 23.3521 29.3334 16.0001C29.3334 8.64808 23.352 2.66675 16 2.66675ZM16 26.6667C10.1187 26.6667 5.33335 21.8814 5.33335 16.0001C5.33335 10.1187 10.1187 5.33341 16 5.33341C21.8814 5.33341 26.6667 10.1187 26.6667 16.0001C26.6667 21.8814 21.8814 26.6667 16 26.6667Z" fill="#808080"/>
<path d="M17.3334 9.33325H14.6667V16.5519L19.0574 20.9426L20.9427 19.0573L17.3334 15.4479V9.33325Z" fill="#808080"/>
</svg>
