<svg width="32" height="32" viewBox="0 0 32 32" fill="none" xmlns="http://www.w3.org/2000/svg">
<path d="M18.4267 29.3334H13.5733C13.2692 29.3335 12.9743 29.2296 12.7373 29.039C12.5004 28.8483 12.3357 28.5825 12.2707 28.2854L11.728 25.7734C11.0041 25.4562 10.3176 25.0596 9.68132 24.5907L7.23199 25.3707C6.94207 25.4632 6.62925 25.4537 6.34548 25.3438C6.06171 25.234 5.82406 25.0303 5.67199 24.7667L3.23999 20.5654C3.08952 20.3016 3.03303 19.9945 3.07978 19.6944C3.12652 19.3943 3.27373 19.119 3.49732 18.9134L5.39732 17.1801C5.31092 16.3949 5.31092 15.6026 5.39732 14.8174L3.49732 13.0881C3.27342 12.8824 3.12601 12.6068 3.07925 12.3065C3.0325 12.0061 3.08917 11.6987 3.23999 11.4347L5.66666 7.23075C5.81872 6.96717 6.05638 6.76354 6.34015 6.65366C6.62392 6.54379 6.93674 6.5343 7.22666 6.62675L9.67599 7.40675C10.0013 7.16675 10.34 6.94275 10.6893 6.74008C11.0267 6.55075 11.3733 6.37875 11.728 6.22541L12.272 3.71608C12.3368 3.41901 12.5011 3.153 12.7378 2.96215C12.9745 2.77129 13.2693 2.66707 13.5733 2.66675H18.4267C18.7307 2.66707 19.0255 2.77129 19.2622 2.96215C19.4989 3.153 19.6632 3.41901 19.728 3.71608L20.2773 6.22675C21.0008 6.54395 21.6868 6.94061 22.3227 7.40941L24.7733 6.62941C25.0631 6.5373 25.3756 6.54698 25.6591 6.65683C25.9425 6.76668 26.18 6.97012 26.332 7.23341L28.7587 11.4374C29.068 11.9801 28.9613 12.6667 28.5013 13.0894L26.6013 14.8227C26.6877 15.6079 26.6877 16.4002 26.6013 17.1854L28.5013 18.9187C28.9613 19.3427 29.068 20.0281 28.7587 20.5707L26.332 24.7747C26.1799 25.0383 25.9423 25.242 25.6585 25.3518C25.3747 25.4617 25.0619 25.4712 24.772 25.3787L22.3227 24.5987C21.6868 25.0672 21.0008 25.4634 20.2773 25.7801L19.728 28.2854C19.663 28.5822 19.4985 28.8479 19.2618 29.0385C19.0252 29.2291 18.7305 29.3332 18.4267 29.3334ZM10.16 21.6387L11.2533 22.4387C11.5 22.6201 11.756 22.7867 12.0227 22.9387C12.2733 23.0841 12.5293 23.2147 12.7947 23.3334L14.0387 23.8787L14.648 26.6667H17.3547L17.964 23.8774L19.208 23.3321C19.7507 23.0921 20.2667 22.7947 20.7453 22.4441L21.8387 21.6441L24.5613 22.5107L25.9147 20.1667L23.804 18.2427L23.9533 16.8934C24.02 16.3027 24.02 15.7067 23.9533 15.1174L23.804 13.7681L25.916 11.8401L24.5613 9.49475L21.84 10.3614L20.7453 9.56141C20.2664 9.209 19.751 8.90906 19.208 8.66675L17.964 8.12141L17.3547 5.33341H14.648L14.0347 8.12275L12.7947 8.66675C12.2509 8.90489 11.7353 9.20272 11.2573 9.55475L10.1627 10.3547L7.44265 9.48808L6.08666 11.8401L8.19732 13.7614L8.04799 15.1121C7.98132 15.7027 7.98132 16.2987 8.04799 16.8881L8.19732 18.2374L6.08666 20.1614L7.43999 22.5054L10.16 21.6387ZM15.9947 21.3334C14.5802 21.3334 13.2236 20.7715 12.2234 19.7713C11.2232 18.7711 10.6613 17.4146 10.6613 16.0001C10.6613 14.5856 11.2232 13.229 12.2234 12.2288C13.2236 11.2287 14.5802 10.6667 15.9947 10.6667C17.4091 10.6667 18.7657 11.2287 19.7659 12.2288C20.7661 13.229 21.328 14.5856 21.328 16.0001C21.328 17.4146 20.7661 18.7711 19.7659 19.7713C18.7657 20.7715 17.4091 21.3334 15.9947 21.3334ZM15.9947 13.3334C15.4725 13.3339 14.9619 13.4878 14.5264 13.7758C14.0908 14.0639 13.7494 14.4735 13.5445 14.9538C13.3396 15.4341 13.2803 15.964 13.3738 16.4778C13.4674 16.9915 13.7097 17.4665 14.0707 17.8438C14.4317 18.221 14.8956 18.484 15.4047 18.6001C15.9139 18.7161 16.4459 18.6801 16.9347 18.4966C17.4236 18.313 17.8478 17.99 18.1547 17.5675C18.4617 17.145 18.6378 16.6417 18.6613 16.1201V16.6534V16.0001C18.6613 15.2928 18.3804 14.6146 17.8803 14.1145C17.3802 13.6144 16.7019 13.3334 15.9947 13.3334Z" fill="#808080"/>
</svg>
