<svg width="32" height="32" viewBox="0 0 32 32" fill="none" xmlns="http://www.w3.org/2000/svg">
<path d="M4 2.66675H6.66667V5.33341H9.33333V8.00008H6.66667V26.6667H25.3333V8.00008H22.6667V5.33341H25.3333V2.66675H28V29.3334H4V2.66675ZM20 5.33341V2.66675H22.6667V5.33341H20ZM17.3333 5.33341H20V8.00008H17.3333V5.33341ZM14.6667 5.33341V2.66675H17.3333V5.33341H14.6667ZM12 5.33341H14.6667V8.00008H12V5.33341ZM12 5.33341V2.66675H9.33333V5.33341H12ZM22.6667 10.6667H9.33333V13.3334H22.6667V10.6667ZM9.33333 16.0001H22.6667V18.6667H9.33333V16.0001ZM22.6667 24.0001V21.3334H17.3333V24.0001H22.6667Z" fill="#808080"/>
</svg>
