<svg width="32" height="32" viewBox="0 0 32 32" fill="none" xmlns="http://www.w3.org/2000/svg">
<path d="M10.5 18C10.8978 18 11.2794 17.842 11.5607 17.5607C11.842 17.2794 12 16.8978 12 16.5C12 16.1022 11.842 15.7206 11.5607 15.4393C11.2794 15.158 10.8978 15 10.5 15C10.1022 15 9.72064 15.158 9.43934 15.4393C9.15804 15.7206 9 16.1022 9 16.5C9 16.8978 9.15804 17.2794 9.43934 17.5607C9.72064 17.842 10.1022 18 10.5 18ZM12 21.5C12 21.8978 11.842 22.2794 11.5607 22.5607C11.2794 22.842 10.8978 23 10.5 23C10.1022 23 9.72064 22.842 9.43934 22.5607C9.15804 22.2794 9 21.8978 9 21.5C9 21.1022 9.15804 20.7206 9.43934 20.4393C9.72064 20.158 10.1022 20 10.5 20C10.8978 20 11.2794 20.158 11.5607 20.4393C11.842 20.7206 12 21.1022 12 21.5ZM16 23C16.3978 23 16.7794 22.842 17.0607 22.5607C17.342 22.2794 17.5 21.8978 17.5 21.5C17.5 21.1022 17.342 20.7206 17.0607 20.4393C16.7794 20.158 16.3978 20 16 20C15.6022 20 15.2206 20.158 14.9393 20.4393C14.658 20.7206 14.5 21.1022 14.5 21.5C14.5 21.8978 14.658 22.2794 14.9393 22.5607C15.2206 22.842 15.6022 23 16 23ZM17.5 16.5C17.5 16.8978 17.342 17.2794 17.0607 17.5607C16.7794 17.842 16.3978 18 16 18C15.6022 18 15.2206 17.842 14.9393 17.5607C14.658 17.2794 14.5 16.8978 14.5 16.5C14.5 16.1022 14.658 15.7206 14.9393 15.4393C15.2206 15.158 15.6022 15 16 15C16.3978 15 16.7794 15.158 17.0607 15.4393C17.342 15.7206 17.5 16.1022 17.5 16.5ZM21.5 18C21.8978 18 22.2794 17.842 22.5607 17.5607C22.842 17.2794 23 16.8978 23 16.5C23 16.1022 22.842 15.7206 22.5607 15.4393C22.2794 15.158 21.8978 15 21.5 15C21.1022 15 20.7206 15.158 20.4393 15.4393C20.158 15.7206 20 16.1022 20 16.5C20 16.8978 20.158 17.2794 20.4393 17.5607C20.7206 17.842 21.1022 18 21.5 18ZM4 9C4 7.67392 4.52678 6.40215 5.46447 5.46447C6.40215 4.52678 7.67392 4 9 4H23C24.3261 4 25.5979 4.52678 26.5355 5.46447C27.4732 6.40215 28 7.67392 28 9V23C28 24.3261 27.4732 25.5979 26.5355 26.5355C25.5979 27.4732 24.3261 28 23 28H9C7.67392 28 6.40215 27.4732 5.46447 26.5355C4.52678 25.5979 4 24.3261 4 23V9ZM9 6C8.20435 6 7.44129 6.31607 6.87868 6.87868C6.31607 7.44129 6 8.20435 6 9V10H26V9C26 8.20435 25.6839 7.44129 25.1213 6.87868C24.5587 6.31607 23.7956 6 23 6H9ZM6 23C6 23.7956 6.31607 24.5587 6.87868 25.1213C7.44129 25.6839 8.20435 26 9 26H23C23.7956 26 24.5587 25.6839 25.1213 25.1213C25.6839 24.5587 26 23.7956 26 23V12H6V23Z" fill="#808080"/>
</svg>
