<svg width="16" height="16" viewBox="0 0 16 16" fill="none" xmlns="http://www.w3.org/2000/svg">
<path fill-rule="evenodd" clip-rule="evenodd" d="M8.35398 1.64592C8.40054 1.69236 8.43748 1.74754 8.46269 1.80828C8.4879 1.86903 8.50087 1.93415 8.50087 1.99992C8.50087 2.06568 8.4879 2.13081 8.46269 2.19155C8.43748 2.2523 8.40054 2.30747 8.35398 2.35392L2.70698 7.99992L8.35398 13.6459C8.44787 13.7398 8.50061 13.8671 8.50061 13.9999C8.50061 14.1327 8.44787 14.26 8.35398 14.3539C8.26009 14.4478 8.13275 14.5005 7.99998 14.5005C7.8672 14.5005 7.73986 14.4478 7.64598 14.3539L1.64598 8.35392C1.59942 8.30747 1.56247 8.2523 1.53727 8.19155C1.51206 8.13081 1.49908 8.06568 1.49908 7.99992C1.49908 7.93415 1.51206 7.86903 1.53727 7.80828C1.56247 7.74754 1.59942 7.69236 1.64598 7.64592L7.64598 1.64592C7.69242 1.59935 7.7476 1.56241 7.80834 1.5372C7.86909 1.512 7.93421 1.49902 7.99998 1.49902C8.06575 1.49902 8.13087 1.512 8.19161 1.5372C8.25236 1.56241 8.30753 1.59935 8.35398 1.64592Z" fill="#E4E4E4"/>
<path fill-rule="evenodd" clip-rule="evenodd" d="M12.354 1.64592C12.4005 1.69236 12.4375 1.74754 12.4627 1.80828C12.4879 1.86903 12.5009 1.93415 12.5009 1.99992C12.5009 2.06568 12.4879 2.13081 12.4627 2.19155C12.4375 2.2523 12.4005 2.30747 12.354 2.35392L6.70698 7.99992L12.354 13.6459C12.4005 13.6924 12.4373 13.7476 12.4625 13.8083C12.4877 13.8691 12.5006 13.9342 12.5006 13.9999C12.5006 14.0657 12.4877 14.1308 12.4625 14.1915C12.4373 14.2522 12.4005 14.3074 12.354 14.3539C12.3075 14.4004 12.2523 14.4373 12.1916 14.4624C12.1308 14.4876 12.0657 14.5005 12 14.5005C11.9342 14.5005 11.8691 14.4876 11.8084 14.4624C11.7477 14.4373 11.6925 14.4004 11.646 14.3539L5.64598 8.35392C5.59941 8.30747 5.56247 8.2523 5.53727 8.19155C5.51206 8.13081 5.49908 8.06568 5.49908 7.99992C5.49908 7.93415 5.51206 7.86903 5.53727 7.80828C5.56247 7.74754 5.59941 7.69236 5.64598 7.64592L11.646 1.64592C11.6924 1.59935 11.7476 1.56241 11.8083 1.5372C11.8691 1.512 11.9342 1.49902 12 1.49902C12.0657 1.49902 12.1309 1.512 12.1916 1.5372C12.2524 1.56241 12.3075 1.59935 12.354 1.64592Z" fill="#E4E4E4"/>
</svg>
