<svg width="16" height="16" viewBox="0 0 16 16" fill="none" xmlns="http://www.w3.org/2000/svg">
<path fill-rule="evenodd" clip-rule="evenodd" d="M11.354 1.64592C11.4006 1.69236 11.4375 1.74754 11.4628 1.80828C11.488 1.86903 11.5009 1.93415 11.5009 1.99992C11.5009 2.06568 11.488 2.13081 11.4628 2.19155C11.4375 2.2523 11.4006 2.30747 11.354 2.35392L5.70704 7.99992L11.354 13.6459C11.4479 13.7398 11.5007 13.8671 11.5007 13.9999C11.5007 14.1327 11.4479 14.26 11.354 14.3539C11.2602 14.4478 11.1328 14.5005 11 14.5005C10.8673 14.5005 10.7399 14.4478 10.646 14.3539L4.64604 8.35392C4.59948 8.30747 4.56253 8.2523 4.53733 8.19155C4.51212 8.13081 4.49915 8.06568 4.49915 7.99992C4.49915 7.93415 4.51212 7.86903 4.53733 7.80828C4.56253 7.74754 4.59948 7.69236 4.64604 7.64592L10.646 1.64592C10.6925 1.59935 10.7477 1.56241 10.8084 1.5372C10.8692 1.512 10.9343 1.49902 11 1.49902C11.0658 1.49902 11.1309 1.512 11.1917 1.5372C11.2524 1.56241 11.3076 1.59935 11.354 1.64592Z" fill="#E4E4E4"/>
</svg>
