<svg width="32" height="32" viewBox="0 0 32 32" fill="none" xmlns="http://www.w3.org/2000/svg">
<path d="M20 15.9959C20 16.2611 19.8946 16.5155 19.7071 16.703C19.5196 16.8905 19.2652 16.9959 19 16.9959C18.7348 16.9959 18.4804 16.8905 18.2929 16.703C18.1054 16.5155 18 16.2611 18 15.9959C18 15.7307 18.1054 15.4763 18.2929 15.2888C18.4804 15.1012 18.7348 14.9959 19 14.9959C19.2652 14.9959 19.5196 15.1012 19.7071 15.2888C19.8946 15.4763 20 15.7307 20 15.9959V15.9959ZM15.196 4.01988C15.051 3.9909 14.9013 3.99444 14.7578 4.03025C14.6144 4.06606 14.4806 4.13326 14.3662 4.22699C14.2518 4.32073 14.1596 4.43867 14.0963 4.57231C14.033 4.70596 14.0001 4.85199 14 4.99988V26.9939C14.0001 27.1418 14.033 27.2878 14.0963 27.4215C14.1596 27.5551 14.2518 27.673 14.3662 27.7668C14.4806 27.8605 14.6144 27.9277 14.7578 27.9635C14.9013 27.9993 15.051 28.0029 15.196 27.9739L25.196 25.9739C25.4226 25.9286 25.6265 25.8062 25.7731 25.6275C25.9197 25.4489 25.9999 25.225 26 24.9939V6.99988C25.9999 6.76879 25.9197 6.54488 25.7731 6.36622C25.6265 6.18756 25.4226 6.06518 25.196 6.01988L15.196 4.01988V4.01988ZM16 25.7739V6.21988L24 7.81988V24.1739L16 25.7739ZM12 25.9939V23.9939H8V7.99988H12V5.99988H7C6.73478 5.99988 6.48043 6.10524 6.29289 6.29278C6.10536 6.48031 6 6.73467 6 6.99988V24.9939C6 25.2591 6.10536 25.5135 6.29289 25.701C6.48043 25.8885 6.73478 25.9939 7 25.9939H12Z" fill="#808080"/>
</svg>
