<svg width="16" height="16" viewBox="0 0 16 16" fill="none" xmlns="http://www.w3.org/2000/svg">
<path d="M7.99967 14.6668C7.07745 14.6668 6.21079 14.4917 5.39967 14.1415C4.58856 13.7917 3.88301 13.3168 3.28301 12.7168C2.68301 12.1168 2.20812 11.4113 1.85834 10.6002C1.50812 9.78905 1.33301 8.92238 1.33301 8.00016C1.33301 7.07794 1.50812 6.21127 1.85834 5.40016C2.20812 4.58905 2.68301 3.8835 3.28301 3.2835C3.88301 2.6835 4.58856 2.20838 5.39967 1.85816C6.21079 1.50838 7.07745 1.3335 7.99967 1.3335C8.9219 1.3335 9.78856 1.50838 10.5997 1.85816C11.4108 2.20838 12.1163 2.6835 12.7163 3.2835C13.3163 3.8835 13.7912 4.58905 14.141 5.40016C14.4912 6.21127 14.6663 7.07794 14.6663 8.00016C14.6663 8.92238 14.4912 9.78905 14.141 10.6002C13.7912 11.4113 13.3163 12.1168 12.7163 12.7168C12.1163 13.3168 11.4108 13.7917 10.5997 14.1415C9.78856 14.4917 8.9219 14.6668 7.99967 14.6668ZM7.99967 13.3335C9.48856 13.3335 10.7497 12.8168 11.783 11.7835C12.8163 10.7502 13.333 9.48905 13.333 8.00016C13.333 6.51127 12.8163 5.25016 11.783 4.21683C10.7497 3.1835 9.48856 2.66683 7.99967 2.66683C6.51079 2.66683 5.24967 3.1835 4.21634 4.21683C3.18301 5.25016 2.66634 6.51127 2.66634 8.00016C2.66634 9.48905 3.18301 10.7502 4.21634 11.7835C5.24967 12.8168 6.51079 13.3335 7.99967 13.3335Z" fill="black"/>
</svg>
